<svg width="400" height="400" viewBox="0 0 400 400" fill="none" xmlns="http://www.w3.org/2000/svg">
  <rect width="400" height="400" fill="#F3F4F6"/>
  <path d="M200 120C166.863 120 140 146.863 140 180C140 213.137 166.863 240 200 240C233.137 240 260 213.137 260 180C260 146.863 233.137 120 200 120ZM200 220C177.909 220 160 202.091 160 180C160 157.909 177.909 140 200 140C222.091 140 240 157.909 240 180C240 202.091 222.091 220 200 220Z" fill="#9CA3AF"/>
  <path d="M280 280C280 253.49 257.51 231 231 231H169C142.49 231 120 253.49 120 280V280C120 306.51 142.49 329 169 329H231C257.51 329 280 306.51 280 280V280Z" fill="#9CA3AF"/>
  <path d="M160 160C160 142.327 174.327 128 192 128H208C225.673 128 240 142.327 240 160V160C240 177.673 225.673 192 208 192H192C174.327 192 160 177.673 160 160V160Z" fill="#D1D5DB"/>
</svg> 